<svg id="visual" viewBox="0 0 900 600" width="900" height="600" xmlns="http://www.w3.org/2000/svg" xmlns:xlink="http://www.w3.org/1999/xlink" version="1.1"><rect x="0" y="0" width="900" height="600" fill="#002233"></rect><path d="M0 473L21.5 456.7C43 440.3 86 407.7 128.8 414.2C171.7 420.7 214.3 466.3 257.2 489C300 511.7 343 511.3 385.8 499.7C428.7 488 471.3 465 514.2 467.2C557 469.3 600 496.7 642.8 493.7C685.7 490.7 728.3 457.3 771.2 444.3C814 431.3 857 438.7 878.5 442.3L900 446L900 601L878.5 601C857 601 814 601 771.2 601C728.3 601 685.7 601 642.8 601C600 601 557 601 514.2 601C471.3 601 428.7 601 385.8 601C343 601 300 601 257.2 601C214.3 601 171.7 601 128.8 601C86 601 43 601 21.5 601L0 601Z" fill="#0066FF" stroke-linecap="round" stroke-linejoin="miter"></path></svg>